<?xml version="1.0" standalone="no"?>
<!DOCTYPE svg PUBLIC "-//W3C//DTD SVG 20010904//EN"
 "http://www.w3.org/TR/2001/REC-SVG-20010904/DTD/svg10.dtd">
<svg version="1.0" xmlns="http://www.w3.org/2000/svg"
 width="727.000000pt" height="727.000000pt" viewBox="0 0 727.000000 727.000000"
 preserveAspectRatio="xMidYMid meet">
<metadata>
Created by potrace 1.14, written by Peter Selinger 2001-2017
</metadata>
<g transform="translate(0.000000,727.000000) scale(0.100000,-0.100000)"
fill="#000000" stroke="none">
<path d="M2639 7255 c-161 -39 -297 -138 -393 -285 -90 -138 -107 -203 -142
-550 -2 -25 -6 -65 -9 -90 -3 -25 -7 -72 -10 -105 -3 -33 -7 -76 -10 -95 -2
-19 -7 -64 -10 -100 -3 -36 -7 -76 -10 -90 -2 -14 -7 -61 -10 -104 -4 -43 -8
-86 -10 -95 -1 -9 -6 -50 -10 -91 -7 -83 -12 -132 -20 -200 -2 -25 -7 -74 -10
-110 -4 -36 -8 -76 -10 -90 -3 -24 -9 -78 -20 -200 -6 -67 -11 -116 -25 -245
-6 -55 -13 -121 -15 -147 -3 -27 -7 -69 -10 -95 -2 -27 -9 -91 -14 -143 -6
-52 -13 -124 -17 -160 -3 -36 -7 -76 -9 -90 -1 -14 -6 -59 -10 -100 -3 -41 -8
-86 -10 -100 -3 -23 -8 -68 -20 -200 -3 -30 -7 -73 -10 -95 -9 -77 -14 -130
-20 -200 -3 -38 -8 -81 -10 -95 -3 -14 -7 -56 -10 -95 -3 -38 -8 -81 -10 -95
-2 -14 -7 -59 -10 -100 -3 -41 -8 -91 -10 -110 -2 -19 -7 -57 -10 -85 -2 -27
-7 -70 -9 -95 -3 -25 -10 -94 -16 -155 -6 -60 -13 -128 -15 -150 -3 -22 -9
-87 -15 -145 -16 -164 -19 -189 -29 -290 -6 -52 -13 -122 -16 -155 -3 -33 -8
-80 -11 -105 -3 -25 -7 -65 -9 -90 -2 -25 -9 -92 -16 -150 -13 -115 -7 -287
11 -365 22 -91 104 -245 169 -316 124 -137 235 -187 481 -218 91 -12 179 -23
195 -26 17 -2 228 -29 470 -60 242 -30 454 -57 470 -60 17 -2 71 -9 120 -15
86 -11 113 -14 189 -25 18 -2 91 -12 162 -20 71 -9 140 -18 154 -20 14 -2 50
-6 80 -10 94 -11 113 -14 190 -24 41 -6 94 -13 118 -16 23 -3 59 -7 80 -10 62
-7 205 -26 237 -31 17 -2 86 -11 155 -19 69 -8 136 -17 150 -19 210 -34 354
-16 485 61 33 20 96 72 140 117 88 88 149 194 180 311 15 59 46 324 81 690 2
22 6 61 9 88 5 45 9 82 20 200 5 48 11 102 20 187 5 47 15 144 20 205 3 28 12
113 20 190 8 77 17 167 20 200 3 33 8 76 10 95 2 19 7 64 10 100 3 36 8 81 10
100 2 19 7 64 10 100 3 36 8 81 10 100 5 37 8 68 25 240 6 58 13 126 15 153 3
26 7 71 10 100 5 48 11 102 20 187 2 19 7 64 10 100 3 36 8 81 10 100 2 19 7
64 10 100 3 36 8 81 10 100 3 19 11 105 20 190 8 85 17 175 20 200 2 25 14
137 25 250 11 113 23 221 25 240 2 19 7 62 10 95 5 56 30 302 40 390 2 22 7
72 10 110 4 39 8 81 10 95 2 14 7 57 10 95 3 39 8 81 10 95 12 67 19 196 18
295 -5 364 -251 659 -583 699 -63 8 -336 43 -520 67 -85 11 -172 22 -192 24
-21 3 -55 7 -75 10 -21 3 -146 18 -278 35 -378 48 -548 70 -580 75 -16 2 -50
7 -75 10 -51 6 -347 43 -400 50 -19 3 -143 18 -275 35 -132 17 -253 32 -270
35 -295 41 -425 49 -506 30z"/>
<path d="M1392 6622 c-242 -49 -432 -243 -505 -517 l-22 -80 0 -2705 c0 -2612
1 -2708 19 -2780 10 -41 39 -117 63 -169 38 -79 58 -107 131 -181 97 -97 190
-150 305 -175 97 -20 3176 -19 3265 2 94 22 81 33 -58 48 -19 2 -71 8 -115 14
-44 6 -102 13 -130 16 -27 3 -75 10 -105 15 -30 5 -77 11 -105 14 -27 3 -156
19 -285 36 -129 16 -257 32 -285 35 -27 3 -61 7 -75 10 -14 2 -43 7 -65 9 -65
8 -113 14 -240 31 -66 9 -136 18 -155 20 -19 2 -71 9 -115 14 -44 6 -102 13
-130 16 -27 4 -61 8 -75 11 -14 2 -169 22 -345 44 -176 23 -349 45 -385 50
-36 5 -92 12 -125 15 -266 29 -440 149 -554 380 -56 114 -76 199 -76 325 0 95
9 228 20 305 4 26 16 150 41 405 3 30 7 71 9 90 2 19 6 58 9 85 3 28 8 73 11
100 19 200 26 275 30 305 8 68 15 136 20 200 3 36 8 83 10 105 9 85 36 342 40
390 3 28 7 70 10 95 3 25 7 68 9 95 3 28 10 93 15 145 6 52 13 124 16 160 3
36 8 81 10 100 3 19 7 55 9 80 3 25 12 113 20 195 8 83 18 182 21 220 4 39 8
81 10 95 2 14 7 57 10 95 4 39 8 86 10 105 11 98 35 342 40 395 3 33 7 76 10
95 2 19 9 85 15 145 6 61 13 126 15 145 2 19 7 67 10 105 4 39 8 81 10 95 3
23 6 52 20 203 3 26 7 68 10 95 44 433 42 416 60 571 10 88 25 161 43 215 l29
81 -180 0 c-109 0 -206 -5 -245 -13z"/>
</g>
</svg>
